<svg width="48" height="32" viewBox="0 0 48 32" xmlns="http://www.w3.org/2000/svg"><title>Pague com Diners Club</title><g fill="none" fill-rule="evenodd"><rect fill="#FFF" width="48" height="32" rx="4"/><path d="M25.717 23.833c4.33.021 8.283-3.529 8.283-7.848C34 11.263 30.047 8 25.717 8H21.99C17.607 7.999 14 11.264 14 15.985c0 4.32 3.607 7.87 7.99 7.848h3.727" fill="#006095"/><path d="M23.523 20.108v-8.381a4.494 4.494 0 0 1 2.884 4.19 4.496 4.496 0 0 1-2.884 4.191m-6.097-4.19a4.497 4.497 0 0 1 2.882-4.19v8.378a4.495 4.495 0 0 1-2.882-4.189m4.49-7.084a7.084 7.084 0 0 0 0 14.167 7.084 7.084 0 0 0 0-14.167" fill="#FFFFFE"/></g></svg>
