<svg width="48" height="32" viewBox="0 0 48 32" xmlns="http://www.w3.org/2000/svg"><title>Pague com Elo</title><g fill="none" fill-rule="evenodd"><rect fill="#FFF" width="48" height="32" rx="4"/><path d="M17.914 14.518l-6.23 2.685a3.568 3.568 0 0 1 6.23-2.685zm-2.677-3.878a6.24 6.24 0 0 1 6.063 4.772l-2.513 1.099v-.005l-2.573 1.13-6.17 2.697a6.237 6.237 0 0 1 5.192-9.693zm4.358 10.698c-2.233 2.12-5.187 2.328-7.783.752l1.467-2.23c1.477.883 2.96.74 4.451-.43l1.865 1.908zm2.54-1.543L22.119 8h2.235v11.476c0 .11.013.207.158.263l1.943.756-.875 2.277-2.277-.963c-.864-.365-1.167-.895-1.168-2.014zm8.413-.199l-1.363 2.367a6.268 6.268 0 0 1-2.73-5.178c0-1.994.932-3.77 2.383-4.92l1.443 2.34a3.548 3.548 0 0 0-1.11 2.58c0 1.144.54 2.16 1.377 2.811zm.979-6.16l-1.155-2.466a6.277 6.277 0 0 1 8.456 4.33l-2.766.23a3.56 3.56 0 0 0-4.535-2.095zm1.204 6.909a3.56 3.56 0 0 0 3.555-3.387l2.714.085a6.275 6.275 0 0 1-8.22 5.707l1.084-2.512c.278.07.568.107.867.107z" fill="#000"/></g></svg>
