<svg width="48" height="32" viewBox="0 0 48 32" xmlns="http://www.w3.org/2000/svg" xmlns:xlink="http://www.w3.org/1999/xlink"><title>Pague com Hipercard</title><defs><path id="a" d="M0 16.74h39.337V.02H0z"/></defs><g fill="none" fill-rule="evenodd"><rect fill="#FFF" width="48" height="32" rx="4"/><g transform="translate(4 8)"><mask id="b" fill="#fff"><use xlink:href="#a"/></mask><path d="M10.799.02H6.722C4.92.102 3.448.81 3.022 2.272c-.22.762-.343 1.599-.516 2.389C1.624 8.679.843 12.807 0 16.744h31.74c2.454 0 4.139-.506 4.594-2.408.212-.884.414-1.885.617-2.856.789-3.785 1.578-7.57 2.386-11.46H10.8" fill="#842124" mask="url(#b)"/></g><path d="M31.512 17.562c-.442.413-1.681.53-1.554-.457.105-.82 1.04-.994 2.052-.876-.075.449-.162 1.018-.498 1.333zm-1.395-3.198c-.042.226-.107.43-.16.647.506-.12 2.08-.492 2.232.152.05.215-.036.442-.1.61-1.423-.13-2.583.097-2.889 1.065-.204.65.023 1.288.459 1.466.838.343 1.858-.05 2.212-.59a2.378 2.378 0 0 0-.06.609h.737c.008-.674.11-1.22.22-1.827.092-.517.266-1.029.238-1.485-.063-1.044-1.875-.675-2.889-.647zm7.392 3.521c-.576.012-.863-.329-.876-.894-.023-.99.431-2.09 1.355-2.19.43-.045.74.05 1.056.153-.29 1.112-.185 2.904-1.535 2.931zm1.913-5.234a17.448 17.448 0 0 1-.299 1.77c-2.101-.635-3.39.842-3.367 2.665.004.352.068.702.299.951.398.43 1.537.533 2.112.172.111-.07.225-.197.299-.286.055-.066.143-.24.16-.19-.031.193-.076.372-.08.59h.777c.15-2.052.612-3.805.956-5.672h-.857zm-21.938 4.93c-.458.463-1.585.456-1.673-.324-.039-.34.094-.695.159-1.047.066-.355.114-.696.18-1.008.45-.527 1.778-.59 1.912.285.117.76-.198 1.71-.578 2.094zm.678-3.217c-.725-.26-1.61.05-1.992.346.001.013-.01.015-.02.016l.02-.016v-.003c.006-.127.053-.216.059-.343h-.737c-.307 1.953-.672 3.85-1.056 5.729h.857c.124-.732.205-1.504.378-2.189.196.721 1.473.583 2.013.305 1.112-.575 1.97-3.31.478-3.845zm4.065 1.37h-2.013c.064-.441.48-.927 1.136-.951.617-.023 1.059.216.877.952zm-.817-1.446c-.62.046-1.143.216-1.515.59-.456.46-.825 1.474-.717 2.398.154 1.319 1.873 1.271 3.248.952.023-.232.082-.43.12-.647-.567.202-1.55.485-2.133.133-.44-.266-.442-.938-.298-1.523a51.83 51.83 0 0 1 2.809 0c.059-.414.227-.866.08-1.275-.194-.54-.888-.68-1.594-.628zm-7.532.076c-.023.003-.022.03-.02.057a53.864 53.864 0 0 1-.717 3.902h.856c.206-1.358.442-2.687.738-3.959h-.857zm22.356.02c-.757-.362-1.387.244-1.634.608.07-.187.074-.436.14-.628h-.757a56.353 56.353 0 0 1-.738 3.959h.877c.006-.525.114-.913.2-1.427.183-1.1.452-2.304 1.793-1.942.044-.186.063-.396.12-.57zM26.61 17.39c-.079-.195-.1-.516-.08-.761.045-.55.255-1.22.578-1.523.447-.418 1.33-.349 2.033-.114.022-.226.07-.428.1-.647-1.155-.18-2.25-.068-2.83.514-.568.57-.94 1.879-.678 2.703.309.964 1.69 1.016 2.81.647.05-.194.076-.41.12-.61-.612.304-1.781.462-2.053-.209zm-.478-3.026c-.76-.293-1.357.202-1.634.666.063-.206.089-.448.14-.666h-.758c-.185 1.371-.458 2.659-.717 3.959h.857c.12-.772.172-1.812.438-2.55.213-.59.77-1.093 1.574-.819.012-.217.077-.384.1-.59zm-13.808-1.599c-.123.759-.26 1.503-.399 2.246-.887.01-1.794.042-2.65-.019.162-.727.278-1.498.438-2.227h-.956c-.342 1.856-.654 3.74-1.036 5.558h.976c.153-.932.297-1.874.498-2.76.833-.02 1.83-.054 2.63.02-.164.92-.364 1.808-.518 2.74h.977c.313-1.883.644-3.75 1.036-5.558h-.996zm2.43.838c.171-.113.391-.625.14-.838-.08-.067-.213-.087-.398-.057-.173.028-.272.084-.34.172-.107.14-.207.565-.04.723.164.153.53.071.639 0z" fill="#FFFFFE"/></g></svg>
