<svg xmlns="http://www.w3.org/2000/svg" width="41" height="36" viewBox="0 0 41 36">
  <path fill-rule="evenodd" d="M15.212 31.5c-1.066 0-2.168-.12-3.276-.362-.128-.03-.26-.042-.388-.042-.222 0-.445.04-.654.12l-4.75 1.81.754-2.62c.2-.694-.037-1.44-.603-1.893-2.457-1.97-3.81-4.584-3.81-7.363 0-5.707 5.71-10.35 12.727-10.35 7.018 0 12.727 4.643 12.727 10.35S22.23 31.5 15.21 31.5m0-22.5C7.18 9 .667 14.44.667 21.15c0 3.447 1.725 6.55 4.485 8.76L3.394 36l8.154-3.104c1.172.255 2.395.404 3.664.404 8.033 0 14.546-5.44 14.546-12.15S23.245 9 15.212 9m25.455 3.15C40.667 5.44 34.155 0 26.12 0c-6 0-11.148 3.036-13.37 7.37.717-.093 1.447-.15 2.19-.16C17.1 3.99 21.302 1.8 26.12 1.8c7.02 0 12.728 4.643 12.728 10.35 0 2.78-1.352 5.393-3.81 7.362-.566.454-.805 1.2-.604 1.894l.756 2.62-3.76-1.432c-.072.61-.21 1.202-.372 1.786l6.88 2.62-1.757-6.09c2.762-2.21 4.487-5.314 4.487-8.76"></path>
</svg>
