<svg xmlns="http://www.w3.org/2000/svg" width="37" height="27" viewBox="0 0 37 27">
  <path fill-rule="evenodd" d="M34.697 22.837c0 .098-.013.19-.03.284L24.566 13.05 34.668 2.98c.016.092.03.185.03.282v19.575zM33.06 24.47H3.606c-.192 0-.374-.04-.545-.1L13.26 14.202l2.81 2.8c.625.625 1.445.937 2.265.937.82 0 1.64-.312 2.266-.936l2.808-2.8 10.2 10.165c-.174.06-.355.1-.548.1zM1.97 22.836V3.262c0-.097.012-.19.028-.283L12.1 13.05 2 23.12c-.016-.092-.03-.185-.03-.283zM3.605 1.63H33.06c.193 0 .374.04.546.102l-14.164 14.12c-.297.294-.69.457-1.11.457-.418 0-.81-.164-1.108-.46L3.06 1.733c.172-.062.354-.1.546-.1zM33.06 0H3.606C1.798 0 .333 1.46.333 3.262v19.575c0 1.802 1.465 3.263 3.273 3.263H33.06c1.808 0 3.273-1.46 3.273-3.263V3.262c0-1.8-1.465-3.262-3.273-3.262z"></path>
</svg>
