<svg xmlns="http://www.w3.org/2000/svg" width="22" height="22" viewBox="0 0 22 22" class="header__item__icon">
  <path fill-rule="evenodd" d="M11 21C5.477 21 1 16.523 1 11S5.477 1 11 1s10 4.477 10 10-4.477 10-10 10m0-21C4.925 0 0 4.925 0 11s4.925 11 11 11 11-4.925 11-11S17.075 0 11 0m1.094 5.496c-.388 0-.72.125-.998.377-.28.25-.418.554-.418.908 0 .355.14.656.418.905.277.25.61.373.998.373s.72-.124.996-.373c.275-.25.413-.55.413-.904 0-.353-.138-.656-.413-.907-.276-.252-.608-.377-.996-.377m.375 10.014c-.307 0-.523-.05-.647-.148-.125-.098-.187-.28-.187-.55 0-.108.02-.266.058-.476.038-.21.082-.396.13-.558l.59-2.032c.058-.187.098-.39.12-.614.02-.225.032-.38.032-.47 0-.427-.155-.775-.464-1.043-.31-.268-.75-.402-1.32-.402-.316 0-.652.054-1.008.164-.355.11-.726.24-1.115.394l-.16.63c.116-.043.255-.087.415-.134.162-.047.32-.07.473-.07.312 0 .523.052.633.154.112.103.168.284.168.545 0 .145-.02.304-.054.48-.037.173-.08.36-.134.554l-.593 2.04c-.053.213-.09.405-.115.575-.024.17-.036.335-.036.5 0 .418.16.763.478 1.035.318.273.765.408 1.34.408.373 0 .7-.047.984-.143.283-.095.66-.233 1.135-.415l.158-.63c-.08.04-.21.08-.393.13-.182.05-.345.075-.488.075"></path>
</svg>
