<svg xmlns="http://www.w3.org/2000/svg" width="22" height="22" viewBox="0 0 22 22" class="header__item__icon">
  <path fill-rule="evenodd" d="M18.407 17.7l-2.475-2.474c.975-1.138 1.568-2.61 1.568-4.226 0-1.615-.593-3.09-1.568-4.226L18.407 4.3C20.014 6.073 21 8.42 21 11c0 2.582-.987 4.927-2.593 6.7M11 21c-2.582 0-4.926-.986-6.7-2.592l2.474-2.475C7.91 16.907 9.384 17.5 11 17.5c1.615 0 3.09-.593 4.226-1.567l2.475 2.475C15.928 20.013 13.58 21 11 21M1 11c0-2.58.986-4.926 2.592-6.7l2.475 2.474C5.092 7.91 4.5 9.384 4.5 11c0 1.615.592 3.088 1.567 4.226L3.592 17.7C1.986 15.928 1 13.583 1 11m15.5 0c0 3.037-2.463 5.5-5.5 5.5-3.038 0-5.5-2.463-5.5-5.5 0-3.038 2.462-5.5 5.5-5.5 3.037 0 5.5 2.462 5.5 5.5M11 1c2.58 0 4.927.986 6.7 2.592l-2.474 2.475C14.088 5.092 12.616 4.5 11 4.5c-1.615 0-3.09.592-4.226 1.567L4.3 3.592C6.073 1.986 8.418 1 11 1m0-1C4.925 0 0 4.925 0 11s4.925 11 11 11 11-4.925 11-11S17.075 0 11 0"></path>
</svg>
