<svg width="48" height="32" viewBox="0 0 48 32" xmlns="http://www.w3.org/2000/svg" xmlns:xlink="http://www.w3.org/1999/xlink"><title>Pague com American Express</title><defs><path id="a" d="M0 5.895h32V0H0z"/></defs><g fill="none" fill-rule="evenodd"><rect fill="#FFF" width="48" height="32" rx="4"/><g transform="translate(8 13)"><mask id="b" fill="#fff"><use xlink:href="#a"/></mask><path d="M32 0h-2.287L28.17 1.896 26.624 0h-2.286l2.451 2.886-2.451 3.009h2.219l1.612-1.98 1.612 1.98H32l-2.452-3.01L32 0zM17.711 5.895h5.773V4.468h-4.123V3.66h3.935V2.242h-3.935v-.816h4.123V0h-5.773v5.895zm-4.82-2.58c-.044.107-.059.708-.124.708-.066 0-.08-.601-.123-.709L11.277 0h-2.87v5.895h1.599v-4.13c0-.174-.073-.356-.073-.454 0-.042.007-.066.044-.066.05 0 .109.181.145.272l1.99 4.378h1.309l1.846-4.362c.036-.09.094-.272.145-.272.029 0 .044.017.044.05 0 .123-.073.288-.073.47v4.114h1.598V0h-2.724L12.89 3.314zm-9.84.073l.885-2.069H4.2l.884 2.07H3.051zM2.661 0L0 5.895h1.927l.51-.981h3.268l.51.98h1.927L5.473 0H2.662z" fill="#067AA6" mask="url(#b)"/></g></g></svg>
