<svg width="48" height="32" viewBox="0 0 48 32" xmlns="http://www.w3.org/2000/svg"><title>Pague com Boleto</title><g fill="none" fill-rule="evenodd"><rect fill="#FFF" width="48" height="32" rx="4"/><g fill="#000"><path d="M12.585 24.32H9.73v-5.26h2.768c1.002 0 1.514.639 1.514 1.34 0 .655-.41 1.105-.907 1.207.568.087 1.01.631 1.01 1.286 0 .797-.52 1.427-1.53 1.427zm-.331-3.17c.378 0 .615-.213.615-.552 0-.324-.237-.552-.615-.552H10.85v1.104h1.404zm.047 2.185c.418 0 .67-.221.67-.6 0-.331-.236-.6-.67-.6H10.85v1.2H12.3zm4.843 1.08c-1.594 0-2.753-1.136-2.753-2.72 0-1.586 1.16-2.722 2.753-2.722 1.585 0 2.744 1.136 2.744 2.721 0 1.585-1.159 2.721-2.744 2.721zm0-.994c.97 0 1.593-.749 1.593-1.727 0-.986-.623-1.727-1.593-1.727-.978 0-1.601.741-1.601 1.727 0 .978.623 1.727 1.6 1.727zm6.522.9h-3.352V19.06h1.128v4.275h2.224v.985zm4.165 0h-3.723V19.06h3.723v.986h-2.603v1.104h2.548v.986h-2.548v1.199h2.603v.985zm2.902 0h-1.128v-4.275h-1.538v-.986h4.196v.986h-1.53v4.274zm4.244.094c-1.594 0-2.753-1.136-2.753-2.72 0-1.586 1.16-2.722 2.753-2.722 1.585 0 2.744 1.136 2.744 2.721 0 1.585-1.159 2.721-2.744 2.721zm0-.994c.97 0 1.593-.749 1.593-1.727 0-.986-.623-1.727-1.593-1.727-.978 0-1.601.741-1.601 1.727 0 .978.623 1.727 1.6 1.727zM8.854 6.033H9.87v12.241H8.854zM10.885 6.033h1.016v12.241h-1.016zM12.916 6.033h1.016v12.241h-1.016z"/><path d="M13.931 6.033h1.016v12.241h-1.016zM16.978 6.033h1.016v12.241h-1.016zM20.024 6.033h1.016v12.241h-1.016zM22.055 6.033h1.016v12.241h-1.016zM23.071 6.033h1.016v12.241h-1.016zM26.117 6.033h1.016v12.241h-1.016zM28.148 6.033h1.016v12.241h-1.016zM30.179 6.033h1.016v12.241h-1.016zM32.21 6.033h1.016v12.241H32.21zM33.226 6.033h1.016v12.241h-1.016zM36.272 6.033h1.016v12.241h-1.016zM38.303 6.033h1.016v12.241h-1.016z"/></g></g></svg>
