<svg xmlns="http://www.w3.org/2000/svg" width="22" height="22" viewBox="0 0 22 22" class="header__item__icon">
  <path fill-rule="evenodd" d="M18.29 17.83c-.596-.572-1.747-1.59-2.893-2.13-.946-.447-1.487-.9-1.655-1.382-.117-.336-.065-.72.16-1.175.17-.344.33-.63.477-.892.622-1.113 1.104-1.917 1.104-4.766 0-4.263-2.46-4.478-2.947-4.478-.4 0-.65.088-.89.173-.264.093-.538.19-1.16.2C9.36 3.4 7 3.438 7 7.36c0 2.743.714 4.003 1.275 5.015.144.26.28.505.387.748.477 1.084.13 1.84-1.098 2.383-1.55.685-2.28 1.04-3.803 2.38-1.705-1.793-2.76-4.214-2.76-6.886C1 5.477 5.477 1 11 1s10 4.477 10 10c0 2.643-1.034 5.04-2.71 6.83M11 21c-2.49 0-4.76-.915-6.511-2.42 1.346-1.18 1.99-1.502 3.478-2.16 1.723-.76 2.31-2.11 1.61-3.7-.127-.286-.273-.55-.428-.83C8.618 10.93 8 9.844 8 7.36c0-2.94 1.395-2.962 2.503-2.98.786-.013 1.17-.15 1.477-.258.206-.074.33-.117.556-.117.927 0 1.95.915 1.95 3.48-.002 2.587-.39 3.223-.98 4.277-.155.277-.324.577-.5.938-.345.7-.415 1.354-.21 1.947.267.76.957 1.38 2.173 1.957.995.47 2.04 1.39 2.6 1.922C15.813 20.062 13.52 21 11 21m0-21C4.925 0 0 4.925 0 11s4.925 11 11 11 11-4.925 11-11S17.075 0 11 0"></path>
</svg>
