<svg xmlns="http://www.w3.org/2000/svg" width="36" height="36" viewBox="0 0 36 36">
  <path fill-rule="evenodd" d="M27.402 34.364c-1.026 0-2.025-.227-2.968-.674-.088-.04-.18-.074-.272-.098-9.3-4.745-17.004-12.45-21.75-21.75-.025-.096-.06-.19-.102-.282-.448-.945-.674-1.944-.674-2.97 0-3.967 3.474-6.954 5.726-6.954.294 0 .49.15.578.24.02.02.057.064.11.15.03.046.062.09.095.135L13.53 9.09c.042.054.087.103.136.152.09.09.24.284.24.578 0 .145-.04.282-.12.408l-1.823 1.81-.024.024c-.662.622-1.038 1.483-1.038 2.386 0 .845.328 1.65.898 2.255.02.033.042.065.064.096 2.01 2.78 4.48 5.24 7.344 7.318l.067.046c.605.58 1.415.914 2.265.914.854 0 1.678-.34 2.29-.943.03-.026.06-.054.09-.084l1.833-1.847c.128-.08.265-.122.41-.122.293 0 .488.15.577.24.048.048.1.093.152.135l6.926 5.387c.044.035.09.067.138.097.087.054.126.09.146.108.09.09.24.284.24.578 0 .056.002.11.008.166-.128 2.25-3.07 5.574-6.948 5.574zm8.575-5.74c0-.678-.275-1.292-.72-1.736-.13-.13-.277-.24-.435-.34l-6.925-5.387c-.445-.444-1.057-.72-1.735-.72-.555 0-1.06.194-1.47.505l-1.933 1.948-.006-.004c-.3.333-.73.548-1.214.548-.554 0-1.04-.276-1.337-.697-.01.017-.024.032-.035.05-2.673-1.94-5.04-4.276-6.978-6.953l.054-.04c-.426-.298-.706-.79-.706-1.35 0-.502.228-.945.58-1.247l-.002-.004 1.923-1.908c.31-.41.5-.914.5-1.47 0-.677-.274-1.29-.718-1.735L9.436 1.155C9.338 1 9.226.85 9.096.72 8.653.274 8.04 0 7.363 0 4.09 0 0 3.846 0 8.59c0 1.315.304 2.556.83 3.67l-.026.027c4.922 9.804 13.1 17.986 22.903 22.91l.027-.028c1.113.526 2.353.83 3.668.83 4.743 0 8.588-4.09 8.588-7.364v-.013h-.013zM19.64 9.817c3.615 0 6.544 2.93 6.544 6.546 0 .452.366.818.818.818.452 0 .818-.366.818-.818 0-4.518-3.662-8.182-8.18-8.182-.452 0-.817.366-.817.818 0 .452.365.818.818.818zm0-8.182c8.132 0 14.724 6.595 14.724 14.728 0 .452.366.818.818.818.452 0 .818-.366.818-.818C36 7.326 28.676 0 19.64 0c-.452 0-.817.367-.817.818 0 .453.365.818.818.818z"></path>
</svg>
