<svg width="48" height="32" viewBox="0 0 48 32" xmlns="http://www.w3.org/2000/svg"><title>Pague com Mastercard</title><g fill="none" fill-rule="evenodd"><rect fill="#FFF" width="48" height="32" rx="4"/><g fill-rule="nonzero"><path fill="#FF5F00" d="M21.113 9.68h6.731v12.117h-6.731z"/><path d="M21.54 15.74a7.697 7.697 0 0 1 2.939-6.06 7.683 7.683 0 0 0-10.405.831 7.715 7.715 0 0 0 0 10.455 7.683 7.683 0 0 0 10.405.831 7.697 7.697 0 0 1-2.938-6.057z" fill="#EB001B"/><path d="M36.925 15.74a7.707 7.707 0 0 1-4.33 6.93c-2.65 1.29-5.801.95-8.116-.873a7.71 7.71 0 0 0 2.939-6.058 7.71 7.71 0 0 0-2.94-6.059 7.682 7.682 0 0 1 8.116-.873 7.707 7.707 0 0 1 4.331 6.93v.003zM36.19 20.536v-.267h.1v-.056h-.254v.056h.11v.267h.044zm.494 0v-.323h-.077l-.09.231-.09-.23h-.068v.322h.056v-.242l.083.21h.058l.083-.21v.245l.045-.003z" fill="#F79E1B"/></g></g></svg>
