<svg xmlns="http://www.w3.org/2000/svg" width="36" height="36" viewBox="0 0 36 36">
  <g fill="none" fill-rule="evenodd">
    <ellipse cx="17.793" cy="18" fill="#FFF" rx="17.793" ry="18"/>
    <path fill="#0A7087" d="M14.608 26.273c7.315-.185 11.31-6.34 11.31-11.687 0-.18-.005-.356-.013-.532.8-.58 1.494-1.303 2.043-2.127-.735.327-1.523.548-2.35.647.844-.51 1.493-1.314 1.798-2.273-.79.47-1.667.813-2.6.998-.746-.8-1.81-1.298-2.987-1.298-2.26 0-4.094 1.84-4.094 4.11 0 .32.036.635.106.935-3.402-.17-6.418-1.807-8.437-4.293-.353.607-.555 1.313-.555 2.066 0 1.425.723 2.683 1.822 3.42-.672-.02-1.303-.206-1.855-.514v.052c0 1.99 1.41 3.652 3.284 4.03-.343.093-.704.143-1.078.143-.263 0-.52-.027-.77-.075.52 1.633 2.033 2.82 3.824 2.854-1.4 1.1-3.166 1.758-5.084 1.758-.33 0-.653-.02-.972-.057v.003c1.748 1.124 3.812 1.794 6.03 1.84h.578"/>
  </g>
</svg>
