<svg width="48" height="32" viewBox="0 0 48 32" xmlns="http://www.w3.org/2000/svg"><title>Pague com Visa</title><g fill="none" fill-rule="evenodd"><rect fill="#FFF" width="48" height="32" rx="4"/><path fill="#005C9C" d="M22.29 20.778h-2.734L21.265 11H24l-1.71 9.778M16.82 11l-2.422 6.725-.286-1.448-.855-4.396S13.154 11 12.05 11H8.047L8 11.165s1.225.256 2.658 1.118l2.207 8.495h2.648L19.556 11H16.82M34.956 17.319l1.313-3.66.739 3.66h-2.052zm2.75 3.459H40L38 11h-2.01c-.927 0-1.153.729-1.153.729l-3.726 9.049h2.604l.521-1.452h3.177l.293 1.452zM30.772 13.662l.34-2.213S30.063 11 28.971 11c-1.18 0-3.983.582-3.983 3.411 0 2.663 3.29 2.696 3.29 4.094 0 1.398-2.952 1.148-3.925.266L24 21.085s1.062.582 2.685.582 4.072-.949 4.072-3.528c0-2.68-3.32-2.93-3.32-4.094 0-1.165 2.317-1.015 3.335-.383"/><path d="M14.222 16.333l-.87-4.443s-.105-.89-1.228-.89H8.048L8 11.167s1.96.404 3.84 1.917c1.796 1.447 2.382 3.25 2.382 3.25" fill="#EE9F3F"/></g></svg>
