<svg width="24" height="24" viewBox="0 0 24 24" xmlns="http://www.w3.org/2000/svg"><title>Shape</title><path d="M20.396 3.502c-2.22-2.234-5.24-3.486-8.39-3.478-6.54 0-11.86 5.32-11.862 11.86-.002 2.08.544 4.126 1.584 5.93L.045 23.96l6.288-1.65c1.74.947 3.687 1.444 5.667 1.444h.005c6.537 0 11.86-5.32 11.86-11.86.01-3.15-1.238-6.17-3.47-8.392zm-8.39 18.25H12c-1.766 0-3.5-.476-5.018-1.375l-.36-.214-3.73.98.995-3.64-.235-.374c-.986-1.572-1.508-3.39-1.505-5.244 0-5.435 4.425-9.857 9.863-9.857 5.444.002 9.856 4.418 9.854 9.863-.002 5.435-4.425 9.858-9.858 9.858zm5.407-7.384c-.296-.15-1.753-.865-2.025-.967-.272-.1-.47-.148-.667.15-.196.296-.764.966-.937 1.16-.173.196-.346.223-.642.075-.295-.148-1.25-.46-2.383-1.47-.88-.787-1.475-1.757-1.65-2.054-.172-.296-.017-.454.13-.603.134-.133.297-.347.445-.52.15-.172.198-.296.297-.494.098-.197.048-.37-.026-.52-.074-.147-.666-1.604-.91-2.198-.242-.578-.486-.5-.668-.51-.17-.007-.37-.01-.57-.01-.302.01-.59.143-.79.372-.27.297-1.036 1.014-1.036 2.472 0 1.457 1.06 2.867 1.21 3.065.148.198 2.09 3.19 5.06 4.475.553.24 1.117.447 1.69.626.71.227 1.357.194 1.868.118.568-.086 1.753-.718 2-1.41.247-.692.247-1.286.17-1.41-.076-.122-.27-.198-.565-.346z" fill="#25D366" fill-rule="evenodd"/></svg>