<?xml version="1.0" encoding="UTF-8" standalone="no"?>
<svg xmlns="http://www.w3.org/2000/svg" height="49px" width="168px" version="1.1" xmlns:xlink="http://www.w3.org/1999/xlink" viewBox="0 0 168 49"><!-- Generator: Sketch 39.1 (31720) - http://www.bohemiancoding.com/sketch -->
 <title>pt-sec-color</title>
 <desc>Created with Sketch.</desc>
 <g id="Style-Guide" fill-rule="evenodd" fill="none">
  <g id="style-guide" transform="translate(-281 -27)">
   <g id="pt-sec-color" transform="translate(281 27)">
    <path id="EDUCAÇÃO" fill="#18ACC4" d="m66.928 42.115c0 0.443 0.234 0.676 0.677 0.676h4.326c0.442 0 0.676-0.233 0.676-0.676v-0.492c0-0.442-0.234-0.676-0.676-0.676h-2.852v-1.66h2.004c0.442 0 0.676-0.234 0.676-0.676v-0.492c0-0.443-0.234-0.676-0.676-0.676h-2.004v-1.599h2.68c0.442 0 0.676-0.233 0.676-0.676v-0.492c0-0.442-0.234-0.676-0.676-0.676h-4.154c-0.443 0-0.677 0.234-0.677 0.676v7.439zm11.447 0c0 0.443 0.234 0.676 0.676 0.676h2.446c2.766 0 4.536-1.647 4.536-4.414 0-2.766-1.77-4.377-4.536-4.377h-2.446c-0.442 0-0.676 0.234-0.676 0.676v7.439zm2.151-1.168v-5.103h0.885c1.45 0 2.397 0.861 2.397 2.533 0 1.685-0.91 2.57-2.397 2.57h-0.885zm11.25-1.389c0 1.979 1.45 3.381 3.687 3.381 2.213 0 3.663-1.402 3.663-3.381v-4.882c0-0.442-0.233-0.676-0.676-0.676h-0.799c-0.442 0-0.676 0.234-0.676 0.676v4.882c0 0.922-0.602 1.414-1.524 1.414s-1.524-0.492-1.524-1.414v-4.882c0-0.442-0.234-0.676-0.676-0.676h-0.799c-0.442 0-0.676 0.234-0.676 0.676v4.882zm13.074-1.181c0 2.607 1.78 4.562 4.6 4.562 1.49 0 2.52-0.615 3.08-1.045 0.33-0.258 0.34-0.603 0.11-0.947l-0.35-0.48c-0.25-0.368-0.57-0.381-0.94-0.123-0.42 0.296-1.06 0.628-1.8 0.628-1.69 0-2.48-1.341-2.48-2.644 0-1.266 0.73-2.508 2.48-2.508 0.65 0 1.23 0.258 1.64 0.491 0.38 0.234 0.69 0.197 0.92-0.184l0.31-0.504c0.22-0.357 0.19-0.689-0.15-0.935-0.52-0.356-1.46-0.836-2.82-0.836-2.71 0-4.6 1.968-4.6 4.525zm12.92 3.64c-0.16 0.467 0.06 0.774 0.55 0.774h0.81c0.39 0 0.64-0.184 0.75-0.565l0.37-1.279h2.74l0.37 1.279c0.12 0.381 0.37 0.565 0.76 0.565h0.81c0.49 0 0.72-0.307 0.56-0.774l-2.55-7.464c-0.12-0.381-0.37-0.553-0.76-0.553h-1.11c-0.39 0-0.64 0.172-0.76 0.553l-2.54 7.464zm2.98-2.791l0.51-1.71c0.16-0.553 0.35-1.512 0.35-1.512h0.03s0.2 0.959 0.35 1.512l0.5 1.71h-1.74zm13.49 4.106c-0.09 0.271-0.04 0.431 0.17 0.443 0.3 0.025 0.51 0.086 0.51 0.295 0 0.184-0.13 0.295-0.34 0.295-0.08 0-0.18-0.024-0.3-0.024-0.14 0-0.3 0.159-0.3 0.528 0 0.443 0.46 0.504 0.79 0.504 0.7 0 1.44-0.27 1.44-1.155 0-0.652-0.43-0.935-0.92-0.984l0.06-0.307c1.32-0.074 2.26-0.628 2.77-1.033 0.34-0.258 0.35-0.603 0.12-0.947l-0.35-0.48c-0.26-0.368-0.58-0.381-0.95-0.123-0.41 0.296-1.05 0.628-1.79 0.628-1.7 0-2.48-1.341-2.48-2.644 0-1.266 0.72-2.508 2.48-2.508 0.65 0 1.23 0.258 1.63 0.491 0.39 0.234 0.69 0.197 0.93-0.184l0.3-0.504c0.23-0.357 0.2-0.689-0.14-0.935-0.52-0.356-1.47-0.836-2.82-0.836-2.71 0-4.61 1.968-4.61 4.525 0 2.398 1.5 4.242 3.94 4.525l-0.14 0.43zm9.14-1.315c-0.16 0.467 0.06 0.774 0.55 0.774h0.81c0.39 0 0.64-0.184 0.75-0.565l0.37-1.279h2.74l0.37 1.279c0.12 0.381 0.37 0.565 0.76 0.565h0.81c0.49 0 0.72-0.307 0.56-0.774l-2.55-7.464c-0.12-0.381-0.37-0.553-0.76-0.553h-1.11c-0.39 0-0.64 0.172-0.76 0.553l-2.54 7.464zm2.98-2.791l0.51-1.71c0.16-0.553 0.35-1.512 0.35-1.512h0.03s0.19 0.959 0.35 1.512l0.5 1.71h-1.74zm-0.94-5.792h0.14c0.3 0 0.5-0.11 0.53-0.307 0.04-0.221 0.2-0.394 0.45-0.394 0.47 0 0.77 0.738 1.75 0.738 0.81 0 1.37-0.565 1.37-1.352 0-0.369-0.2-0.529-0.59-0.529h-0.15c-0.33 0-0.54 0.135-0.57 0.332-0.03 0.258-0.17 0.369-0.4 0.369-0.48 0-0.78-0.738-1.75-0.738-0.81 0-1.37 0.627-1.37 1.316 0 0.381 0.22 0.565 0.59 0.565zm10.79 4.906c0 2.582 1.87 4.599 4.6 4.599s4.6-2.017 4.6-4.599c0-2.52-1.87-4.488-4.6-4.488s-4.6 1.968-4.6 4.488zm2.23 0c0-1.438 0.98-2.52 2.37-2.52s2.37 1.082 2.37 2.52c0 1.5-0.98 2.632-2.37 2.632s-2.37-1.132-2.37-2.632z"/>
    <g id="QUERO" fill="#FC9F00" transform="translate(64.133 5.7826)">
     <g id="Group" transform="translate(.017597 .037307)">
      <path id="Shape" d="m24.914 2.3629c0-1.3255 0.722-1.9979 2.029-1.9979l2.536 0.00001c1.307 0 2.029 0.67239 2.029 1.9979v11.853c0 1.844 1.229 2.747 3.063 2.747 1.873 0 3.102-0.884 3.102-2.709v-11.891c0-1.3256 0.683-1.998 2.029-1.998l2.498 0.00001c1.346 0 2.029 0.67239 2.029 1.9979v11.853c0 5.014-3.785 8.645-9.638 8.645-5.912 0-9.697-3.631-9.697-8.645v-11.853l0.02-0.0001z"/>
      <path id="Shape" d="m45.926 2.3629c0-1.3255 0.722-1.9979 2.068-1.9979l10.477 0.00001c1.307 0 2.029 0.67239 2.029 1.9979v1.5369c0 1.2871-0.722 1.9979-2.029 1.9979h-5.951v2.6703h4.253c1.347 0 2.068 0.7108 2.068 1.998v1.537c0 1.325-0.721 1.998-2.068 1.998h-4.253v2.824h6.321c1.347 0 2.069 0.711 2.069 1.998v1.537c0 1.287-0.722 1.997-2.069 1.997h-10.847c-1.346 0-2.068-0.71-2.068-1.997v-18.097-0.0001z"/>
      <path id="Shape" d="m62.022 2.3629c0-1.3255 0.721-1.9979 2.068-1.9979l6.106 0.00001c2.068 0 3.473 0.11526 4.468 0.46105 2.536 0.82604 4.409 3.3811 4.409 6.6469 0 2.2477-0.936 4.86-3.121 6.186v0.058s0.507 0.557 0.995 1.421l2.809 4.918c0.878 1.537 0.098 2.44-1.405 2.44h-2.907c-0.975 0-1.853-0.365-2.399-1.422l-2.849-5.417h-1.561v4.841c0 1.287-0.682 1.998-2.029 1.998h-2.497c-1.346 0-2.068-0.711-2.068-1.998v-18.135l-0.019-0.0001zm7.999 7.7611c1.56 0 2.341-0.6723 2.341-2.3436 0-0.5763-0.098-1.2679-0.995-1.6329-0.507-0.2114-1.034-0.2498-1.756-0.2498h-0.995v4.2263h1.405z"/>
      <path id="Shape" d="m91.911 0c7.121 0 11.879 4.9564 11.879 11.296 0 6.493-4.758 11.584-11.879 11.584s-11.843-5.072-11.843-11.584c-0.019-6.3396 4.702-11.296 11.843-11.296zm0 16.963c3.004 0 5.072-2.44 5.072-5.667 0-3.0738-2.068-5.3791-5.072-5.3791-2.966 0-5.034 2.3053-5.034 5.3791 0 3.247 2.049 5.667 5.034 5.667z"/>
      <path id="Shape" d="m23.724 11.296c0-6.3396-4.76-11.296-11.882-11.296-7.1206 0-11.842 4.9564-11.842 11.296-1.0338e-12 6.493 4.7214 11.584 11.842 11.584 2.107 0 4-0.442 5.639-1.229l0.175 0.172c1.054 1.038 2.79 1.038 3.844 0l0.019-0.019c1.015-0.999 1.054-2.612 0.117-3.669 1.327-1.902 2.088-4.265 2.088-6.839zm-16.935 0c0-3.0738 2.068-5.3791 5.0336-5.3791 3.004 0 5.072 2.3053 5.072 5.3791 0 0.672-0.097 1.326-0.273 1.902-1.073-0.98-2.731-0.961-3.785 0.057l-0.019 0.02c-0.995 0.979-1.054 2.555-0.176 3.592-0.273 0.039-0.546 0.077-0.839 0.077-2.9456 0.019-5.0136-2.401-5.0136-5.648z"/>
     </g>
    </g>
    <g id="icon">
     <g id="Group-2" fill="#18ACC4">
      <path id="Combined-Shape" d="m36.302 29.446c0.746 6.754 3.355 12.834 7.21 17.525-2.983 1.305-6.278 2.029-9.742 2.029-13.442 0-24.339-10.901-24.339-24.348 0.0004-4.394 1.164-8.517 3.2-12.076-4.7369 1.816-9.0118 4.567-12.599 8.026 5.2237-12.119 17.274-20.602 31.304-20.602 2.719 0 5.364 0.31856 7.899 0.92039 1.839 0.42221 3.6 1.0529 5.254 1.866-2.443 2.6848-4.452 5.8943-5.893 9.4726 1.125 0.4 2.224 0.852 3.297 1.353-2.331 4.542-3.672 9.676-3.739 15.116-0.626 0.222-1.243 0.462-1.852 0.718z"/>
     </g>
     <path id="Combined-Shape" fill="#FC9F00" d="m57.889 27.816c-3.828-6.152-9.387-11.114-15.996-14.204 1.636-3.189 3.76-6.0866 6.274-8.5937 6.029 4.4316 9.942 11.576 9.942 19.634 0 1.08-0.07 2.144-0.206 3.187-0.005-0.008-0.01-0.016-0.014-0.023 0.005 0.001 0.011 0.003 0.016 0.004-1.13 8.704-6.856 15.966-14.664 19.268-3.227-5.209-5.09-11.353-5.09-17.931 0-0.143 0.001-0.286 0.003-0.429 3.558-1.26 7.387-1.945 11.376-1.945 2.884 0 5.684 0.358 8.359 1.033z"/>
     <path id="Combined-Shape" fill="#003D52" d="m38.12 28.741c-7.915 2.813-14.483 8.469-18.476 15.741 3.983 2.844 8.859 4.518 14.126 4.518 3.36 0 6.56-0.681 9.471-1.912-3.227-5.209-5.09-11.353-5.09-17.931 0-0.109 0.001-0.217 0.002-0.325 0.087-9.302 3.898-17.713 10.014-23.814v0.0003c-2.406-1.7685-5.149-3.105-8.115-3.8953-2.534 4.7666-3.969 10.206-3.969 15.981 0 4.087 0.718 8.006 2.037 11.637z"/>
     <path id="Combined-Shape" fill="#fff" d="m41.893 13.612c6.609 3.09 12.168 8.052 15.996 14.204-2.675-0.675-5.475-1.033-8.359-1.033-3.989 0-7.818 0.685-11.376 1.945 0.067-5.44 1.408-10.574 3.739-15.116z"/>
    </g>
   </g>
  </g>
 </g>
</svg>
